<svg width="196" height="132" viewBox="0 0 196 132" fill="none" xmlns="http://www.w3.org/2000/svg">
<path d="M76.5861 25.9706C77.5202 25.6998 78.507 25.5543 79.527 25.5543H116.745C117.765 25.5543 118.752 25.6998 119.686 25.9706L121.722 13.8044C122.298 10.3614 121.338 6.85825 119.089 4.19334C116.84 1.52843 113.553 0 110.071 0H86.2007C82.7188 0 79.432 1.52843 77.1829 4.19334C74.9336 6.85825 73.9742 10.3613 74.5504 13.8042L76.5861 25.9706Z" fill="url(#paint0_linear_6006_748)"/>
<path d="M116.745 29.2119H79.527C75.692 29.2119 72.572 32.3401 72.572 36.1853V41.0449C72.572 44.89 75.692 48.0182 79.527 48.0182H80.776V56.085H84.424V48.0184H111.848V56.085H115.496V48.0184H116.745C120.58 48.0184 123.7 44.8902 123.7 41.0451V36.1855C123.7 32.3402 120.58 29.2119 116.745 29.2119Z" fill="url(#paint1_linear_6006_748)"/>
<path d="M9.32561 97.4356C8.01507 97.4356 6.79243 97.2033 5.6577 96.7386C4.52296 96.2739 3.53206 95.6249 2.68501 94.7916C1.83795 93.9584 1.17469 92.9809 0.695226 91.8592C0.231742 90.7215 0 89.4956 0 88.1816C0 86.8516 0.231742 85.6257 0.695226 84.504C1.15871 83.3823 1.81398 82.4049 2.66104 81.5716C3.50809 80.7383 4.49899 80.0974 5.63372 79.6487C6.76846 79.184 7.99909 78.9516 9.32561 78.9516C10.6521 78.9516 11.8828 79.184 13.0175 79.6487C14.1522 80.1134 15.1431 80.7624 15.9902 81.5956C16.8372 82.4129 17.4925 83.3823 17.956 84.504C18.4355 85.6257 18.6752 86.8516 18.6752 88.1816C18.6752 89.4956 18.4355 90.7215 17.956 91.8592C17.4765 92.9809 16.8133 93.9584 15.9662 94.7916C15.1192 95.6249 14.1283 96.2739 12.9935 96.7386C11.8748 97.2033 10.6521 97.4356 9.32561 97.4356ZM9.32561 94.4551C10.2046 94.4551 11.0117 94.3029 11.7469 93.9984C12.4821 93.6779 13.1214 93.2373 13.6648 92.6764C14.2242 92.1156 14.6477 91.4506 14.9354 90.6814C15.239 89.9122 15.3909 89.079 15.3909 88.1816C15.3909 87.2842 15.239 86.459 14.9354 85.7058C14.6477 84.9367 14.2242 84.2717 13.6648 83.7108C13.1214 83.134 12.4821 82.6933 11.7469 82.3888C11.0117 82.0844 10.2046 81.9321 9.32561 81.9321C8.46257 81.9321 7.66346 82.0844 6.92828 82.3888C6.1931 82.6933 5.54582 83.134 4.98644 83.7108C4.44305 84.2717 4.01952 84.9367 3.71586 85.7058C3.4122 86.459 3.26037 87.2842 3.26037 88.1816C3.26037 89.079 3.4122 89.9122 3.71586 90.6814C4.01952 91.4506 4.44305 92.1156 4.98644 92.6764C5.54582 93.2373 6.1931 93.6779 6.92828 93.9984C7.66346 94.3029 8.46257 94.4551 9.32561 94.4551Z" fill="url(#paint2_linear_6006_748)"/>
<path d="M22.8209 97.1472V86.8836H20.5195V84.0714H22.8209V83.6387C22.8209 82.6452 23.0207 81.8039 23.4202 81.1149C23.8358 80.4098 24.4111 79.873 25.1463 79.5045C25.8815 79.1359 26.7525 78.9516 27.7594 78.9516C27.9512 78.9516 28.1589 78.9676 28.3827 78.9997C28.6224 79.0157 28.8222 79.0397 28.982 79.0718V81.7879C28.8222 81.7559 28.6704 81.7398 28.5265 81.7398C28.3987 81.7238 28.2788 81.7158 28.1669 81.7158C27.4637 81.7158 26.9203 81.8761 26.5367 82.1965C26.1532 82.501 25.9614 82.9817 25.9614 83.6387V84.0714H31.667V86.8836H25.9614V97.1472H22.8209ZM39.9858 97.1472V84.0714H43.1263V97.1472H39.9858ZM32.3143 97.1472V86.8836H30.0129V84.0714H32.3143V83.6387C32.3143 82.6452 32.5141 81.8039 32.9136 81.1149C33.3132 80.4098 33.8806 79.873 34.6157 79.5045C35.3669 79.1359 36.2459 78.9516 37.2528 78.9516C37.4446 78.9516 37.6524 78.9676 37.8761 78.9997C38.1158 79.0157 38.3076 79.0397 38.4515 79.0718V81.7879C38.3076 81.7559 38.1638 81.7398 38.02 81.7398C37.8921 81.7238 37.7722 81.7158 37.6604 81.7158C36.9571 81.7158 36.4137 81.8761 36.0302 82.1965C35.6466 82.501 35.4548 82.9817 35.4548 83.6387V84.0714H41.1605V86.8836H35.4548V97.1472H32.3143Z" fill="url(#paint3_linear_6006_748)"/>
<path d="M52.0331 97.4356C50.7385 97.4356 49.5718 97.1392 48.533 96.5463C47.5101 95.9374 46.703 95.1201 46.1117 94.0946C45.5203 93.053 45.2247 91.8832 45.2247 90.5852C45.2247 89.2873 45.5203 88.1255 46.1117 87.1C46.703 86.0744 47.5101 85.2652 48.533 84.6723C49.5718 84.0794 50.7385 83.7829 52.0331 83.7829C52.9601 83.7829 53.8231 83.9512 54.6222 84.2877C55.4213 84.6082 56.1086 85.0569 56.6839 85.6337C57.2752 86.1946 57.6988 86.8676 57.9545 87.6528L55.1976 88.8546C54.9578 88.1976 54.5503 87.6688 53.9749 87.2682C53.4156 86.8676 52.7683 86.6673 52.0331 86.6673C51.3459 86.6673 50.7305 86.8356 50.1871 87.1721C49.6597 87.5086 49.2442 87.9733 48.9405 88.5662C48.6369 89.1591 48.485 89.8401 48.485 90.6093C48.485 91.3784 48.6369 92.0595 48.9405 92.6524C49.2442 93.2453 49.6597 93.71 50.1871 94.0465C50.7305 94.383 51.3459 94.5513 52.0331 94.5513C52.7843 94.5513 53.4395 94.351 53.9989 93.9503C54.5583 93.5497 54.9578 93.0129 55.1976 92.3399L57.9545 93.5898C57.6988 94.3269 57.2832 94.9919 56.7079 95.5848C56.1325 96.1617 55.4453 96.6184 54.6462 96.9549C53.8471 97.2754 52.976 97.4356 52.0331 97.4356Z" fill="url(#paint4_linear_6006_748)"/>
<path d="M66.5225 97.4356C65.18 97.4356 64.0053 97.1312 62.9984 96.5222C61.9916 95.9133 61.2084 95.0881 60.6491 94.0465C60.0897 93.0049 59.81 91.8512 59.81 90.5852C59.81 89.2713 60.0897 88.1095 60.6491 87.1C61.2244 86.0744 61.9995 85.2652 62.9745 84.6723C63.9654 84.0794 65.0681 83.7829 66.2828 83.7829C67.3056 83.7829 68.2006 83.9512 68.9678 84.2877C69.7509 84.6242 70.4142 85.0889 70.9576 85.6818C71.501 86.2747 71.9165 86.9557 72.2042 87.7249C72.4919 88.4781 72.6357 89.2953 72.6357 90.1766C72.6357 90.401 72.6197 90.6333 72.5878 90.8737C72.5718 91.1141 72.5318 91.3224 72.4679 91.4986H62.3991V89.095H70.6939L69.2075 90.2247C69.3514 89.4876 69.3114 88.8306 69.0877 88.2537C68.8799 87.6768 68.5283 87.2201 68.0328 86.8836C67.5534 86.5471 66.97 86.3789 66.2828 86.3789C65.6275 86.3789 65.0442 86.5471 64.5327 86.8836C64.0213 87.2041 63.6297 87.6849 63.358 88.3258C63.1023 88.9508 63.0064 89.7119 63.0704 90.6093C63.0064 91.4105 63.1103 92.1236 63.382 92.7485C63.6697 93.3575 64.0852 93.8302 64.6286 94.1667C65.188 94.5032 65.8273 94.6714 66.5465 94.6714C67.2657 94.6714 67.873 94.5192 68.3685 94.2147C68.8799 93.9103 69.2794 93.5017 69.5671 92.9889L72.1083 94.2388C71.8526 94.8637 71.453 95.4166 70.9096 95.8973C70.3662 96.378 69.7189 96.7546 68.9678 97.027C68.2326 97.2994 67.4175 97.4356 66.5225 97.4356Z" fill="url(#paint5_linear_6006_748)"/>
<path d="M79.5409 97.1472V79.2401H91.4557V82.1244H82.8013V87.0759H90.3769V89.9603H82.8013V97.1472H79.5409Z" fill="url(#paint6_linear_6006_748)"/>
<path d="M97.7408 97.4356C96.7339 97.4356 95.8549 97.2113 95.1037 96.7626C94.3685 96.3139 93.8012 95.689 93.4016 94.8878C93.0181 94.0866 92.8263 93.1491 92.8263 92.0755V84.0714H95.9668V91.8111C95.9668 92.3559 96.0707 92.8367 96.2784 93.2533C96.5022 93.6539 96.8138 93.9744 97.2134 94.2147C97.6289 94.4391 98.0924 94.5513 98.6038 94.5513C99.1153 94.5513 99.5708 94.4391 99.9703 94.2147C100.37 93.9744 100.682 93.6459 100.905 93.2292C101.129 92.8126 101.241 92.3159 101.241 91.739V84.0714H104.381V97.1472H101.409V94.5753L101.672 95.032C101.369 95.8332 100.865 96.4341 100.162 96.8347C99.4749 97.2353 98.6678 97.4356 97.7408 97.4356Z" fill="url(#paint7_linear_6006_748)"/>
<path d="M107.301 97.1472V84.0714H110.249V86.9798L110.01 86.5471C110.313 85.5696 110.785 84.8886 111.424 84.504C112.079 84.1195 112.863 83.9272 113.773 83.9272H114.541V86.7154H113.414C112.519 86.7154 111.8 86.9958 111.256 87.5567C110.713 88.1015 110.441 88.8706 110.441 89.8642V97.1472H107.301Z" fill="url(#paint8_linear_6006_748)"/>
<path d="M116.267 97.1472V84.0714H119.216V86.6433L118.976 86.1866C119.28 85.4014 119.775 84.8085 120.463 84.4079C121.166 83.9913 121.981 83.7829 122.908 83.7829C123.867 83.7829 124.714 83.9913 125.449 84.4079C126.2 84.8245 126.784 85.4094 127.199 86.1625C127.615 86.8997 127.822 87.757 127.822 88.7344V97.1472H124.682V89.4796C124.682 88.9027 124.57 88.4059 124.346 87.9893C124.123 87.5727 123.811 87.2522 123.411 87.0279C123.028 86.7875 122.572 86.6673 122.045 86.6673C121.533 86.6673 121.078 86.7875 120.678 87.0279C120.279 87.2522 119.967 87.5727 119.743 87.9893C119.52 88.4059 119.408 88.9027 119.408 89.4796V97.1472H116.267Z" fill="url(#paint9_linear_6006_748)"/>
<path d="M130.478 97.1472V84.0714H133.619V97.1472H130.478ZM130.478 82.6051V79.2401H133.619V82.6051H130.478Z" fill="url(#paint10_linear_6006_748)"/>
<path d="M141.481 97.4356C140.09 97.4356 138.876 97.1071 137.837 96.4501C136.814 95.7771 136.111 94.8717 135.727 93.734L138.076 92.6043C138.412 93.3414 138.876 93.9183 139.467 94.3349C140.074 94.7516 140.745 94.9599 141.481 94.9599C142.056 94.9599 142.511 94.8317 142.847 94.5753C143.183 94.3189 143.351 93.9824 143.351 93.5658C143.351 93.3094 143.279 93.1011 143.135 92.9408C143.007 92.7645 142.823 92.6203 142.583 92.5082C142.36 92.38 142.112 92.2758 141.84 92.1957L139.707 91.5948C138.604 91.2743 137.765 90.7855 137.189 90.1286C136.63 89.4716 136.35 88.6944 136.35 87.797C136.35 86.9958 136.55 86.2988 136.95 85.7058C137.365 85.0969 137.933 84.6242 138.652 84.2877C139.387 83.9512 140.226 83.7829 141.169 83.7829C142.4 83.7829 143.486 84.0794 144.429 84.6723C145.372 85.2652 146.044 86.0984 146.443 87.1721L144.046 88.3018C143.822 87.7089 143.446 87.2362 142.919 86.8836C142.392 86.5311 141.8 86.3548 141.145 86.3548C140.618 86.3548 140.202 86.475 139.898 86.7154C139.595 86.9557 139.443 87.2682 139.443 87.6528C139.443 87.8932 139.507 88.1015 139.635 88.2777C139.763 88.454 139.938 88.5982 140.162 88.7104C140.402 88.8226 140.674 88.9267 140.977 89.0229L143.063 89.6478C144.134 89.9683 144.957 90.449 145.532 91.09C146.123 91.731 146.419 92.5162 146.419 93.4456C146.419 94.2308 146.211 94.9278 145.796 95.5368C145.38 96.1296 144.805 96.5943 144.07 96.9309C143.335 97.2674 142.472 97.4356 141.481 97.4356Z" fill="url(#paint11_linear_6006_748)"/>
<path d="M148.833 97.1472V78.9516H151.973V86.6433L151.542 86.1866C151.845 85.4014 152.341 84.8085 153.028 84.4079C153.731 83.9913 154.546 83.7829 155.473 83.7829C156.432 83.7829 157.279 83.9913 158.014 84.4079C158.765 84.8245 159.349 85.4094 159.764 86.1625C160.18 86.8997 160.388 87.757 160.388 88.7344V97.1472H157.247V89.4796C157.247 88.9027 157.135 88.4059 156.912 87.9893C156.688 87.5727 156.376 87.2522 155.977 87.0279C155.593 86.7875 155.138 86.6673 154.61 86.6673C154.099 86.6673 153.643 86.7875 153.244 87.0279C152.844 87.2522 152.532 87.5727 152.309 87.9893C152.085 88.4059 151.973 88.9027 151.973 89.4796V97.1472H148.833Z" fill="url(#paint12_linear_6006_748)"/>
<path d="M163.043 97.1472V84.0714H166.184V97.1472H163.043ZM163.043 82.6051V79.2401H166.184V82.6051H163.043Z" fill="url(#paint13_linear_6006_748)"/>
<path d="M169.083 97.1472V84.0714H172.032V86.6433L171.792 86.1866C172.096 85.4014 172.592 84.8085 173.279 84.4079C173.982 83.9913 174.797 83.7829 175.724 83.7829C176.683 83.7829 177.53 83.9913 178.265 84.4079C179.016 84.8245 179.6 85.4094 180.015 86.1625C180.431 86.8997 180.639 87.757 180.639 88.7344V97.1472H177.498V89.4796C177.498 88.9027 177.386 88.4059 177.162 87.9893C176.939 87.5727 176.627 87.2522 176.227 87.0279C175.844 86.7875 175.388 86.6673 174.861 86.6673C174.35 86.6673 173.894 86.7875 173.495 87.0279C173.095 87.2522 172.783 87.5727 172.56 87.9893C172.336 88.4059 172.224 88.9027 172.224 89.4796V97.1472H169.083Z" fill="url(#paint14_linear_6006_748)"/>
<path d="M189.623 102.435C188.648 102.435 187.745 102.275 186.914 101.954C186.083 101.634 185.364 101.185 184.757 100.608C184.165 100.048 183.734 99.3826 183.462 98.6134L186.387 97.5077C186.579 98.1167 186.954 98.6054 187.513 98.974C188.089 99.3585 188.792 99.5508 189.623 99.5508C190.262 99.5508 190.822 99.4306 191.301 99.1903C191.797 98.9499 192.18 98.5974 192.452 98.1327C192.724 97.684 192.859 97.1392 192.859 96.4982V93.5177L193.459 94.2388C193.011 95.024 192.412 95.6169 191.661 96.0175C190.91 96.4181 190.055 96.6184 189.096 96.6184C187.881 96.6184 186.794 96.338 185.835 95.7771C184.876 95.2163 184.125 94.4471 183.582 93.4696C183.038 92.4921 182.767 91.3945 182.767 90.1766C182.767 88.9428 183.038 87.8451 183.582 86.8836C184.125 85.9222 184.868 85.169 185.811 84.6242C186.754 84.0634 187.825 83.7829 189.024 83.7829C189.999 83.7829 190.854 83.9913 191.589 84.4079C192.34 84.8085 192.963 85.3934 193.459 86.1625L193.027 86.9557V84.0714H196V96.4982C196 97.6359 195.72 98.6535 195.161 99.5508C194.618 100.448 193.866 101.153 192.907 101.666C191.965 102.179 190.87 102.435 189.623 102.435ZM189.479 93.71C190.151 93.71 190.734 93.5658 191.229 93.2773C191.741 92.9729 192.14 92.5562 192.428 92.0274C192.716 91.4986 192.859 90.8897 192.859 90.2007C192.859 89.5276 192.708 88.9267 192.404 88.3979C192.116 87.8531 191.717 87.4285 191.205 87.124C190.71 86.8195 190.135 86.6673 189.479 86.6673C188.824 86.6673 188.233 86.8195 187.705 87.124C187.178 87.4285 186.762 87.8531 186.459 88.3979C186.171 88.9267 186.027 89.5276 186.027 90.2007C186.027 90.8737 186.171 91.4746 186.459 92.0034C186.762 92.5322 187.17 92.9488 187.681 93.2533C188.209 93.5577 188.808 93.71 189.479 93.71Z" fill="url(#paint15_linear_6006_748)"/>
<path d="M42.5131 127.481C41.3783 127.481 40.3235 127.273 39.3486 126.856C38.3897 126.44 37.5586 125.863 36.8554 125.126C36.1681 124.372 35.6647 123.499 35.3451 122.506L38.054 121.328C38.4856 122.353 39.1089 123.163 39.924 123.756C40.739 124.332 41.658 124.621 42.6809 124.621C43.2562 124.621 43.7517 124.533 44.1672 124.356C44.5988 124.164 44.9264 123.908 45.1501 123.587C45.3899 123.267 45.5097 122.882 45.5097 122.434C45.5097 121.905 45.3499 121.472 45.0303 121.136C44.7266 120.783 44.2631 120.511 43.6398 120.318L40.2116 119.213C38.8212 118.78 37.7744 118.131 37.0711 117.266C36.3679 116.4 36.0163 115.383 36.0163 114.213C36.0163 113.187 36.264 112.282 36.7595 111.497C37.2709 110.712 37.9741 110.103 38.8691 109.67C39.7801 109.221 40.819 108.997 41.9857 108.997C43.0565 108.997 44.0394 109.189 44.9344 109.574C45.8294 109.943 46.5965 110.463 47.2358 111.136C47.8911 111.793 48.3785 112.571 48.6982 113.468L46.0132 114.67C45.6616 113.772 45.1342 113.083 44.4309 112.603C43.7277 112.106 42.9126 111.857 41.9857 111.857C41.4423 111.857 40.9628 111.954 40.5473 112.146C40.1317 112.322 39.8041 112.579 39.5644 112.915C39.3406 113.236 39.2287 113.62 39.2287 114.069C39.2287 114.566 39.3886 115.006 39.7082 115.391C40.0278 115.759 40.5153 116.048 41.1706 116.256L44.4549 117.29C45.8773 117.754 46.9401 118.395 47.6434 119.213C48.3626 120.03 48.7222 121.039 48.7222 122.241C48.7222 123.267 48.4584 124.172 47.931 124.957C47.4036 125.743 46.6764 126.359 45.7495 126.808C44.8225 127.257 43.7437 127.481 42.5131 127.481Z" fill="url(#paint16_linear_6006_748)"/>
<path d="M51.3942 132V114.117H54.343V116.713L54.0553 116.064C54.5028 115.359 55.1101 114.814 55.8772 114.429C56.6444 114.029 57.5314 113.828 58.5383 113.828C59.7689 113.828 60.8797 114.133 61.8706 114.742C62.8615 115.351 63.6446 116.168 64.22 117.194C64.8113 118.219 65.107 119.373 65.107 120.655C65.107 121.921 64.8193 123.074 64.2439 124.116C63.6686 125.158 62.8854 125.983 61.8945 126.592C60.9036 127.185 59.7769 127.481 58.5143 127.481C57.5714 127.481 56.7003 127.297 55.9012 126.928C55.1181 126.544 54.4948 125.999 54.0313 125.294L54.5347 124.669V132H51.3942ZM58.1547 124.597C58.8739 124.597 59.5132 124.429 60.0726 124.092C60.632 123.756 61.0635 123.291 61.3671 122.698C61.6868 122.105 61.8466 121.424 61.8466 120.655C61.8466 119.886 61.6868 119.213 61.3671 118.636C61.0635 118.043 60.632 117.578 60.0726 117.242C59.5132 116.889 58.8739 116.713 58.1547 116.713C57.4675 116.713 56.8442 116.881 56.2848 117.218C55.7414 117.554 55.3099 118.027 54.9902 118.636C54.6866 119.229 54.5347 119.902 54.5347 120.655C54.5347 121.424 54.6866 122.105 54.9902 122.698C55.3099 123.291 55.7414 123.756 56.2848 124.092C56.8442 124.429 57.4675 124.597 58.1547 124.597Z" fill="url(#paint17_linear_6006_748)"/>
<path d="M73.6864 127.481C72.3439 127.481 71.1692 127.177 70.1623 126.568C69.1555 125.959 68.3723 125.134 67.8129 124.092C67.2536 123.05 66.9739 121.897 66.9739 120.631C66.9739 119.317 67.2536 118.155 67.8129 117.145C68.3883 116.12 69.1634 115.311 70.1384 114.718C71.1292 114.125 72.232 113.828 73.4467 113.828C74.4695 113.828 75.3645 113.997 76.1317 114.333C76.9148 114.67 77.5781 115.134 78.1215 115.727C78.6649 116.32 79.0804 117.001 79.3681 117.77C79.6558 118.524 79.7996 119.341 79.7996 120.222C79.7996 120.446 79.7836 120.679 79.7516 120.919C79.7357 121.16 79.6957 121.368 79.6318 121.544H69.563V119.141H77.8578L76.3714 120.27C76.5153 119.533 76.4753 118.876 76.2515 118.299C76.0438 117.722 75.6922 117.266 75.1967 116.929C74.7173 116.593 74.1339 116.424 73.4467 116.424C72.7914 116.424 72.208 116.593 71.6966 116.929C71.1852 117.25 70.7936 117.73 70.5219 118.371C70.2662 118.996 70.1703 119.757 70.2343 120.655C70.1703 121.456 70.2742 122.169 70.5459 122.794C70.8336 123.403 71.2491 123.876 71.7925 124.212C72.3519 124.549 72.9912 124.717 73.7104 124.717C74.4296 124.717 75.0369 124.565 75.5323 124.26C76.0438 123.956 76.4433 123.547 76.731 123.034L79.2722 124.284C79.0165 124.909 78.6169 125.462 78.0735 125.943C77.5301 126.424 76.8828 126.8 76.1317 127.073C75.3965 127.345 74.5814 127.481 73.6864 127.481Z" fill="url(#paint18_linear_6006_748)"/>
<path d="M88.4613 127.481C87.1667 127.481 86 127.185 84.9612 126.592C83.9383 125.983 83.1312 125.166 82.5399 124.14C81.9485 123.099 81.6528 121.929 81.6528 120.631C81.6528 119.333 81.9485 118.171 82.5399 117.145C83.1312 116.12 83.9383 115.311 84.9612 114.718C86 114.125 87.1667 113.828 88.4613 113.828C89.3882 113.828 90.2513 113.997 91.0504 114.333C91.8495 114.654 92.5367 115.102 93.1121 115.679C93.7034 116.24 94.1269 116.913 94.3827 117.698L91.6257 118.9C91.386 118.243 90.9785 117.714 90.4031 117.314C89.8437 116.913 89.1964 116.713 88.4613 116.713C87.774 116.713 87.1587 116.881 86.6153 117.218C86.0879 117.554 85.6724 118.019 85.3687 118.612C85.065 119.205 84.9132 119.886 84.9132 120.655C84.9132 121.424 85.065 122.105 85.3687 122.698C85.6724 123.291 86.0879 123.756 86.6153 124.092C87.1587 124.429 87.774 124.597 88.4613 124.597C89.2124 124.597 89.8677 124.396 90.4271 123.996C90.9865 123.595 91.386 123.058 91.6257 122.385L94.3827 123.635C94.1269 124.372 93.7114 125.037 93.136 125.63C92.5607 126.207 91.8735 126.664 91.0743 127C90.2752 127.321 89.4042 127.481 88.4613 127.481Z" fill="url(#paint19_linear_6006_748)"/>
<path d="M96.7656 127.193V114.117H99.9061V127.193H96.7656ZM96.7656 112.651V109.286H99.9061V112.651H96.7656Z" fill="url(#paint20_linear_6006_748)"/>
<path d="M106.761 127.481C105.85 127.481 105.059 127.329 104.388 127.024C103.717 126.72 103.197 126.287 102.83 125.726C102.462 125.15 102.278 124.485 102.278 123.731C102.278 123.01 102.438 122.369 102.758 121.809C103.077 121.232 103.573 120.751 104.244 120.366C104.915 119.982 105.762 119.709 106.785 119.549L111.053 118.852V121.256L107.385 121.881C106.761 121.993 106.298 122.193 105.994 122.482C105.69 122.77 105.539 123.147 105.539 123.611C105.539 124.06 105.706 124.421 106.042 124.693C106.394 124.949 106.825 125.078 107.337 125.078C107.992 125.078 108.567 124.941 109.063 124.669C109.574 124.38 109.966 123.988 110.237 123.491C110.525 122.994 110.669 122.45 110.669 121.857V118.492C110.669 117.931 110.445 117.466 109.998 117.097C109.566 116.713 108.991 116.521 108.272 116.521C107.6 116.521 107.001 116.705 106.474 117.073C105.962 117.426 105.587 117.899 105.347 118.492L102.782 117.242C103.037 116.553 103.437 115.96 103.98 115.463C104.54 114.95 105.195 114.55 105.946 114.261C106.697 113.973 107.512 113.828 108.391 113.828C109.462 113.828 110.405 114.029 111.22 114.429C112.035 114.814 112.667 115.359 113.114 116.064C113.578 116.753 113.809 117.562 113.809 118.492V127.193H110.837V124.957L111.508 124.909C111.172 125.47 110.773 125.943 110.309 126.327C109.846 126.696 109.318 126.984 108.727 127.193C108.136 127.385 107.481 127.481 106.761 127.481Z" fill="url(#paint21_linear_6006_748)"/>
<path d="M116.712 127.193V108.997H119.853V127.193H116.712Z" fill="url(#paint22_linear_6006_748)"/>
<path d="M122.752 127.193V114.117H125.893V127.193H122.752ZM122.752 112.651V109.286H125.893V112.651H122.752Z" fill="url(#paint23_linear_6006_748)"/>
<path d="M133.755 127.481C132.364 127.481 131.15 127.153 130.111 126.496C129.088 125.823 128.385 124.917 128.001 123.78L130.351 122.65C130.686 123.387 131.15 123.964 131.741 124.38C132.348 124.797 133.02 125.005 133.755 125.005C134.33 125.005 134.786 124.877 135.121 124.621C135.457 124.364 135.625 124.028 135.625 123.611C135.625 123.355 135.553 123.147 135.409 122.986C135.281 122.81 135.097 122.666 134.858 122.554C134.634 122.425 134.386 122.321 134.114 122.241L131.981 121.64C130.878 121.32 130.039 120.831 129.464 120.174C128.904 119.517 128.625 118.74 128.625 117.843C128.625 117.041 128.824 116.344 129.224 115.751C129.639 115.142 130.207 114.67 130.926 114.333C131.661 113.997 132.5 113.828 133.443 113.828C134.674 113.828 135.761 114.125 136.704 114.718C137.647 115.311 138.318 116.144 138.717 117.218L136.32 118.347C136.096 117.754 135.721 117.282 135.193 116.929C134.666 116.577 134.074 116.4 133.419 116.4C132.892 116.4 132.476 116.521 132.173 116.761C131.869 117.001 131.717 117.314 131.717 117.698C131.717 117.939 131.781 118.147 131.909 118.323C132.037 118.5 132.213 118.644 132.436 118.756C132.676 118.868 132.948 118.972 133.251 119.068L135.337 119.693C136.408 120.014 137.231 120.495 137.806 121.136C138.398 121.777 138.693 122.562 138.693 123.491C138.693 124.276 138.486 124.973 138.07 125.582C137.655 126.175 137.079 126.64 136.344 126.976C135.609 127.313 134.746 127.481 133.755 127.481Z" fill="url(#paint24_linear_6006_748)"/>
<path d="M147.052 127.337C145.582 127.337 144.439 126.936 143.624 126.135C142.825 125.318 142.425 124.172 142.425 122.698V116.929H140.172V114.117H140.412C141.051 114.117 141.546 113.949 141.898 113.612C142.25 113.276 142.425 112.787 142.425 112.146V111.136H145.566V114.117H148.562V116.929H145.566V122.53C145.566 122.962 145.638 123.331 145.782 123.635C145.941 123.94 146.181 124.172 146.501 124.332C146.836 124.493 147.26 124.573 147.771 124.573C147.883 124.573 148.011 124.565 148.155 124.549C148.315 124.533 148.467 124.517 148.61 124.501V127.193C148.387 127.225 148.131 127.257 147.843 127.289C147.556 127.321 147.292 127.337 147.052 127.337Z" fill="url(#paint25_linear_6006_748)"/>
<path d="M155.972 127.481C154.582 127.481 153.367 127.153 152.328 126.496C151.305 125.823 150.602 124.917 150.219 123.78L152.568 122.65C152.904 123.387 153.367 123.964 153.959 124.38C154.566 124.797 155.237 125.005 155.972 125.005C156.548 125.005 157.003 124.877 157.339 124.621C157.674 124.364 157.842 124.028 157.842 123.611C157.842 123.355 157.77 123.147 157.626 122.986C157.499 122.81 157.315 122.666 157.075 122.554C156.851 122.425 156.604 122.321 156.332 122.241L154.198 121.64C153.095 121.32 152.256 120.831 151.681 120.174C151.122 119.517 150.842 118.74 150.842 117.843C150.842 117.041 151.042 116.344 151.441 115.751C151.857 115.142 152.424 114.67 153.143 114.333C153.879 113.997 154.718 113.828 155.661 113.828C156.891 113.828 157.978 114.125 158.921 114.718C159.864 115.311 160.535 116.144 160.935 117.218L158.537 118.347C158.314 117.754 157.938 117.282 157.411 116.929C156.883 116.577 156.292 116.4 155.637 116.4C155.109 116.4 154.694 116.521 154.39 116.761C154.086 117.001 153.935 117.314 153.935 117.698C153.935 117.939 153.998 118.147 154.126 118.323C154.254 118.5 154.43 118.644 154.654 118.756C154.893 118.868 155.165 118.972 155.469 119.068L157.555 119.693C158.625 120.014 159.448 120.495 160.024 121.136C160.615 121.777 160.911 122.562 160.911 123.491C160.911 124.276 160.703 124.973 160.287 125.582C159.872 126.175 159.297 126.64 158.561 126.976C157.826 127.313 156.963 127.481 155.972 127.481Z" fill="url(#paint26_linear_6006_748)"/>
<defs>
<linearGradient id="paint0_linear_6006_748" x1="22.2204" y1="79.6206" x2="195.604" y2="131.948" gradientUnits="userSpaceOnUse">
<stop stop-color="#CBB585"/>
<stop offset="1" stop-color="#B98836"/>
</linearGradient>
<linearGradient id="paint1_linear_6006_748" x1="22.2204" y1="79.6206" x2="195.604" y2="131.948" gradientUnits="userSpaceOnUse">
<stop stop-color="#CBB585"/>
<stop offset="1" stop-color="#B98836"/>
</linearGradient>
<linearGradient id="paint2_linear_6006_748" x1="22.2204" y1="79.6206" x2="195.604" y2="131.948" gradientUnits="userSpaceOnUse">
<stop stop-color="#CBB585"/>
<stop offset="1" stop-color="#B98836"/>
</linearGradient>
<linearGradient id="paint3_linear_6006_748" x1="22.2204" y1="79.6206" x2="195.604" y2="131.948" gradientUnits="userSpaceOnUse">
<stop stop-color="#CBB585"/>
<stop offset="1" stop-color="#B98836"/>
</linearGradient>
<linearGradient id="paint4_linear_6006_748" x1="22.2204" y1="79.6206" x2="195.604" y2="131.948" gradientUnits="userSpaceOnUse">
<stop stop-color="#CBB585"/>
<stop offset="1" stop-color="#B98836"/>
</linearGradient>
<linearGradient id="paint5_linear_6006_748" x1="22.2204" y1="79.6206" x2="195.604" y2="131.948" gradientUnits="userSpaceOnUse">
<stop stop-color="#CBB585"/>
<stop offset="1" stop-color="#B98836"/>
</linearGradient>
<linearGradient id="paint6_linear_6006_748" x1="22.2204" y1="79.6206" x2="195.604" y2="131.948" gradientUnits="userSpaceOnUse">
<stop stop-color="#CBB585"/>
<stop offset="1" stop-color="#B98836"/>
</linearGradient>
<linearGradient id="paint7_linear_6006_748" x1="22.2204" y1="79.6206" x2="195.604" y2="131.948" gradientUnits="userSpaceOnUse">
<stop stop-color="#CBB585"/>
<stop offset="1" stop-color="#B98836"/>
</linearGradient>
<linearGradient id="paint8_linear_6006_748" x1="22.2204" y1="79.6206" x2="195.604" y2="131.948" gradientUnits="userSpaceOnUse">
<stop stop-color="#CBB585"/>
<stop offset="1" stop-color="#B98836"/>
</linearGradient>
<linearGradient id="paint9_linear_6006_748" x1="22.2204" y1="79.6206" x2="195.604" y2="131.948" gradientUnits="userSpaceOnUse">
<stop stop-color="#CBB585"/>
<stop offset="1" stop-color="#B98836"/>
</linearGradient>
<linearGradient id="paint10_linear_6006_748" x1="22.2204" y1="79.6206" x2="195.604" y2="131.948" gradientUnits="userSpaceOnUse">
<stop stop-color="#CBB585"/>
<stop offset="1" stop-color="#B98836"/>
</linearGradient>
<linearGradient id="paint11_linear_6006_748" x1="22.2204" y1="79.6206" x2="195.604" y2="131.948" gradientUnits="userSpaceOnUse">
<stop stop-color="#CBB585"/>
<stop offset="1" stop-color="#B98836"/>
</linearGradient>
<linearGradient id="paint12_linear_6006_748" x1="22.2204" y1="79.6206" x2="195.604" y2="131.948" gradientUnits="userSpaceOnUse">
<stop stop-color="#CBB585"/>
<stop offset="1" stop-color="#B98836"/>
</linearGradient>
<linearGradient id="paint13_linear_6006_748" x1="22.2204" y1="79.6206" x2="195.604" y2="131.948" gradientUnits="userSpaceOnUse">
<stop stop-color="#CBB585"/>
<stop offset="1" stop-color="#B98836"/>
</linearGradient>
<linearGradient id="paint14_linear_6006_748" x1="22.2204" y1="79.6206" x2="195.604" y2="131.948" gradientUnits="userSpaceOnUse">
<stop stop-color="#CBB585"/>
<stop offset="1" stop-color="#B98836"/>
</linearGradient>
<linearGradient id="paint15_linear_6006_748" x1="22.2204" y1="79.6206" x2="195.604" y2="131.948" gradientUnits="userSpaceOnUse">
<stop stop-color="#CBB585"/>
<stop offset="1" stop-color="#B98836"/>
</linearGradient>
<linearGradient id="paint16_linear_6006_748" x1="22.2204" y1="79.6206" x2="195.604" y2="131.948" gradientUnits="userSpaceOnUse">
<stop stop-color="#CBB585"/>
<stop offset="1" stop-color="#B98836"/>
</linearGradient>
<linearGradient id="paint17_linear_6006_748" x1="22.2204" y1="79.6206" x2="195.604" y2="131.948" gradientUnits="userSpaceOnUse">
<stop stop-color="#CBB585"/>
<stop offset="1" stop-color="#B98836"/>
</linearGradient>
<linearGradient id="paint18_linear_6006_748" x1="22.2204" y1="79.6206" x2="195.604" y2="131.948" gradientUnits="userSpaceOnUse">
<stop stop-color="#CBB585"/>
<stop offset="1" stop-color="#B98836"/>
</linearGradient>
<linearGradient id="paint19_linear_6006_748" x1="22.2204" y1="79.6206" x2="195.604" y2="131.948" gradientUnits="userSpaceOnUse">
<stop stop-color="#CBB585"/>
<stop offset="1" stop-color="#B98836"/>
</linearGradient>
<linearGradient id="paint20_linear_6006_748" x1="22.2204" y1="79.6206" x2="195.604" y2="131.948" gradientUnits="userSpaceOnUse">
<stop stop-color="#CBB585"/>
<stop offset="1" stop-color="#B98836"/>
</linearGradient>
<linearGradient id="paint21_linear_6006_748" x1="22.2204" y1="79.6206" x2="195.604" y2="131.948" gradientUnits="userSpaceOnUse">
<stop stop-color="#CBB585"/>
<stop offset="1" stop-color="#B98836"/>
</linearGradient>
<linearGradient id="paint22_linear_6006_748" x1="22.2204" y1="79.6206" x2="195.604" y2="131.948" gradientUnits="userSpaceOnUse">
<stop stop-color="#CBB585"/>
<stop offset="1" stop-color="#B98836"/>
</linearGradient>
<linearGradient id="paint23_linear_6006_748" x1="22.2204" y1="79.6206" x2="195.604" y2="131.948" gradientUnits="userSpaceOnUse">
<stop stop-color="#CBB585"/>
<stop offset="1" stop-color="#B98836"/>
</linearGradient>
<linearGradient id="paint24_linear_6006_748" x1="22.2204" y1="79.6206" x2="195.604" y2="131.948" gradientUnits="userSpaceOnUse">
<stop stop-color="#CBB585"/>
<stop offset="1" stop-color="#B98836"/>
</linearGradient>
<linearGradient id="paint25_linear_6006_748" x1="22.2204" y1="79.6206" x2="195.604" y2="131.948" gradientUnits="userSpaceOnUse">
<stop stop-color="#CBB585"/>
<stop offset="1" stop-color="#B98836"/>
</linearGradient>
<linearGradient id="paint26_linear_6006_748" x1="22.2204" y1="79.6206" x2="195.604" y2="131.948" gradientUnits="userSpaceOnUse">
<stop stop-color="#CBB585"/>
<stop offset="1" stop-color="#B98836"/>
</linearGradient>
</defs>
</svg>
