<svg width="329" height="24" viewBox="0 0 329 24" fill="none" xmlns="http://www.w3.org/2000/svg">
<path d="M9.536 18.788C8.224 18.788 7 18.556 5.864 18.092C4.728 17.628 3.736 16.98 2.888 16.148C2.04 15.316 1.376 14.34 0.896 13.22C0.432 12.084 0.2 10.86 0.2 9.548C0.2 8.22 0.432 6.996 0.896 5.876C1.36 4.756 2.016 3.78 2.864 2.948C3.712 2.116 4.704 1.476 5.84 1.028C6.976 0.563999 8.208 0.331999 9.536 0.331999C10.864 0.331999 12.096 0.563999 13.232 1.028C14.368 1.492 15.36 2.14 16.208 2.972C17.056 3.788 17.712 4.756 18.176 5.876C18.656 6.996 18.896 8.22 18.896 9.548C18.896 10.86 18.656 12.084 18.176 13.22C17.696 14.34 17.032 15.316 16.184 16.148C15.336 16.98 14.344 17.628 13.208 18.092C12.088 18.556 10.864 18.788 9.536 18.788ZM9.536 15.812C10.416 15.812 11.224 15.66 11.96 15.356C12.696 15.036 13.336 14.596 13.88 14.036C14.44 13.476 14.864 12.812 15.152 12.044C15.456 11.276 15.608 10.444 15.608 9.548C15.608 8.652 15.456 7.828 15.152 7.076C14.864 6.308 14.44 5.644 13.88 5.084C13.336 4.508 12.696 4.068 11.96 3.764C11.224 3.46 10.416 3.308 9.536 3.308C8.672 3.308 7.872 3.46 7.136 3.764C6.4 4.068 5.752 4.508 5.192 5.084C4.648 5.644 4.224 6.308 3.92 7.076C3.616 7.828 3.464 8.652 3.464 9.548C3.464 10.444 3.616 11.276 3.92 12.044C4.224 12.812 4.648 13.476 5.192 14.036C5.752 14.596 6.4 15.036 7.136 15.356C7.872 15.66 8.672 15.812 9.536 15.812ZM23.0463 18.5V8.252H20.7423V5.444H23.0463V5.012C23.0463 4.02 23.2463 3.18 23.6463 2.492C24.0623 1.788 24.6383 1.252 25.3743 0.883999C26.1103 0.515999 26.9823 0.331999 27.9903 0.331999C28.1823 0.331999 28.3903 0.347999 28.6143 0.379999C28.8543 0.395999 29.0543 0.42 29.2143 0.451999V3.164C29.0543 3.132 28.9023 3.116 28.7583 3.116C28.6303 3.1 28.5103 3.092 28.3983 3.092C27.6943 3.092 27.1503 3.252 26.7663 3.572C26.3823 3.876 26.1903 4.356 26.1903 5.012V5.444H31.9023V8.252H26.1903V18.5H23.0463ZM40.2303 18.5V5.444H43.3743V18.5H40.2303ZM32.5503 18.5V8.252H30.2463V5.444H32.5503V5.012C32.5503 4.02 32.7503 3.18 33.1503 2.492C33.5503 1.788 34.1183 1.252 34.8543 0.883999C35.6063 0.515999 36.4863 0.331999 37.4943 0.331999C37.6863 0.331999 37.8943 0.347999 38.1183 0.379999C38.3583 0.395999 38.5503 0.42 38.6943 0.451999V3.164C38.5503 3.132 38.4063 3.116 38.2623 3.116C38.1343 3.1 38.0143 3.092 37.9023 3.092C37.1983 3.092 36.6543 3.252 36.2703 3.572C35.8863 3.876 35.6943 4.356 35.6943 5.012V5.444H41.4063V8.252H35.6943V18.5H32.5503ZM52.2911 18.788C50.9951 18.788 49.8271 18.492 48.7871 17.9C47.7631 17.292 46.9551 16.476 46.3631 15.452C45.7711 14.412 45.4751 13.244 45.4751 11.948C45.4751 10.652 45.7711 9.492 46.3631 8.468C46.9551 7.444 47.7631 6.636 48.7871 6.044C49.8271 5.452 50.9951 5.156 52.2911 5.156C53.2191 5.156 54.0831 5.324 54.8831 5.66C55.6831 5.98 56.3711 6.428 56.9471 7.004C57.5391 7.564 57.9631 8.236 58.2191 9.02L55.4591 10.22C55.2191 9.564 54.8111 9.036 54.2351 8.636C53.6751 8.236 53.0271 8.036 52.2911 8.036C51.6031 8.036 50.9871 8.204 50.4431 8.54C49.9151 8.876 49.4991 9.34 49.1951 9.932C48.8911 10.524 48.7391 11.204 48.7391 11.972C48.7391 12.74 48.8911 13.42 49.1951 14.012C49.4991 14.604 49.9151 15.068 50.4431 15.404C50.9871 15.74 51.6031 15.908 52.2911 15.908C53.0431 15.908 53.6991 15.708 54.2591 15.308C54.8191 14.908 55.2191 14.372 55.4591 13.7L58.2191 14.948C57.9631 15.684 57.5471 16.348 56.9711 16.94C56.3951 17.516 55.7071 17.972 54.9071 18.308C54.1071 18.628 53.2351 18.788 52.2911 18.788ZM66.7966 18.788C65.4526 18.788 64.2766 18.484 63.2686 17.876C62.2606 17.268 61.4766 16.444 60.9166 15.404C60.3566 14.364 60.0766 13.212 60.0766 11.948C60.0766 10.636 60.3566 9.476 60.9166 8.468C61.4926 7.444 62.2686 6.636 63.2446 6.044C64.2366 5.452 65.3406 5.156 66.5566 5.156C67.5806 5.156 68.4766 5.324 69.2446 5.66C70.0286 5.996 70.6926 6.46 71.2366 7.052C71.7806 7.644 72.1966 8.324 72.4846 9.092C72.7726 9.844 72.9166 10.66 72.9166 11.54C72.9166 11.764 72.9006 11.996 72.8686 12.236C72.8526 12.476 72.8126 12.684 72.7486 12.86H62.6686V10.46H70.9726L69.4846 11.588C69.6286 10.852 69.5886 10.196 69.3646 9.62C69.1566 9.044 68.8046 8.588 68.3086 8.252C67.8286 7.916 67.2446 7.748 66.5566 7.748C65.9006 7.748 65.3166 7.916 64.8046 8.252C64.2926 8.572 63.9006 9.052 63.6286 9.692C63.3726 10.316 63.2766 11.076 63.3406 11.972C63.2766 12.772 63.3806 13.484 63.6526 14.108C63.9406 14.716 64.3566 15.188 64.9006 15.524C65.4606 15.86 66.1006 16.028 66.8206 16.028C67.5406 16.028 68.1486 15.876 68.6446 15.572C69.1566 15.268 69.5566 14.86 69.8446 14.348L72.3886 15.596C72.1326 16.22 71.7326 16.772 71.1886 17.252C70.6446 17.732 69.9966 18.108 69.2446 18.38C68.5086 18.652 67.6926 18.788 66.7966 18.788ZM79.8296 18.5V0.619998H91.7576V3.5H83.0936V8.444H90.6776V11.324H83.0936V18.5H79.8296ZM98.0497 18.788C97.0417 18.788 96.1617 18.564 95.4097 18.116C94.6737 17.668 94.1057 17.044 93.7057 16.244C93.3217 15.444 93.1297 14.508 93.1297 13.436V5.444H96.2737V13.172C96.2737 13.716 96.3777 14.196 96.5857 14.612C96.8097 15.012 97.1217 15.332 97.5217 15.572C97.9377 15.796 98.4017 15.908 98.9137 15.908C99.4257 15.908 99.8817 15.796 100.282 15.572C100.682 15.332 100.994 15.004 101.218 14.588C101.442 14.172 101.554 13.676 101.554 13.1V5.444H104.698V18.5H101.722V15.932L101.986 16.388C101.682 17.188 101.178 17.788 100.474 18.188C99.7857 18.588 98.9777 18.788 98.0497 18.788ZM107.62 18.5V5.444H110.572V8.348L110.332 7.916C110.636 6.94 111.108 6.26 111.748 5.876C112.404 5.492 113.188 5.3 114.1 5.3H114.868V8.084H113.74C112.844 8.084 112.124 8.364 111.58 8.924C111.036 9.468 110.764 10.236 110.764 11.228V18.5H107.62ZM116.597 18.5V5.444H119.549V8.012L119.309 7.556C119.613 6.772 120.109 6.18 120.797 5.78C121.501 5.364 122.317 5.156 123.245 5.156C124.205 5.156 125.053 5.364 125.789 5.78C126.541 6.196 127.125 6.78 127.541 7.532C127.957 8.268 128.165 9.124 128.165 10.1V18.5H125.021V10.844C125.021 10.268 124.909 9.772 124.685 9.356C124.461 8.94 124.149 8.62 123.749 8.396C123.365 8.156 122.909 8.036 122.381 8.036C121.869 8.036 121.413 8.156 121.013 8.396C120.613 8.62 120.301 8.94 120.077 9.356C119.853 9.772 119.741 10.268 119.741 10.844V18.5H116.597ZM130.823 18.5V5.444H133.967V18.5H130.823ZM130.823 3.98V0.619998H133.967V3.98H130.823ZM141.838 18.788C140.446 18.788 139.23 18.46 138.19 17.804C137.166 17.132 136.462 16.228 136.078 15.092L138.43 13.964C138.766 14.7 139.23 15.276 139.822 15.692C140.43 16.108 141.102 16.316 141.838 16.316C142.414 16.316 142.87 16.188 143.206 15.932C143.542 15.676 143.71 15.34 143.71 14.924C143.71 14.668 143.638 14.46 143.494 14.3C143.366 14.124 143.182 13.98 142.942 13.868C142.718 13.74 142.47 13.636 142.198 13.556L140.062 12.956C138.958 12.636 138.118 12.148 137.542 11.492C136.982 10.836 136.702 10.06 136.702 9.164C136.702 8.364 136.902 7.668 137.302 7.076C137.718 6.468 138.286 5.996 139.006 5.66C139.742 5.324 140.582 5.156 141.526 5.156C142.758 5.156 143.846 5.452 144.79 6.044C145.734 6.636 146.406 7.468 146.806 8.54L144.406 9.668C144.182 9.076 143.806 8.604 143.278 8.252C142.75 7.9 142.158 7.724 141.502 7.724C140.974 7.724 140.558 7.844 140.254 8.084C139.95 8.324 139.798 8.636 139.798 9.02C139.798 9.26 139.862 9.468 139.99 9.644C140.118 9.82 140.294 9.964 140.518 10.076C140.758 10.188 141.03 10.292 141.334 10.388L143.422 11.012C144.494 11.332 145.318 11.812 145.894 12.452C146.486 13.092 146.782 13.876 146.782 14.804C146.782 15.588 146.574 16.284 146.158 16.892C145.742 17.484 145.166 17.948 144.43 18.284C143.694 18.62 142.83 18.788 141.838 18.788ZM149.198 18.5V0.331999H152.342V8.012L151.91 7.556C152.214 6.772 152.71 6.18 153.398 5.78C154.102 5.364 154.918 5.156 155.846 5.156C156.806 5.156 157.654 5.364 158.39 5.78C159.142 6.196 159.726 6.78 160.142 7.532C160.558 8.268 160.766 9.124 160.766 10.1V18.5H157.622V10.844C157.622 10.268 157.51 9.772 157.286 9.356C157.062 8.94 156.75 8.62 156.35 8.396C155.966 8.156 155.51 8.036 154.982 8.036C154.47 8.036 154.014 8.156 153.614 8.396C153.214 8.62 152.902 8.94 152.678 9.356C152.454 9.772 152.342 10.268 152.342 10.844V18.5H149.198ZM163.425 18.5V5.444H166.569V18.5H163.425ZM163.425 3.98V0.619998H166.569V3.98H163.425ZM169.472 18.5V5.444H172.424V8.012L172.184 7.556C172.488 6.772 172.984 6.18 173.672 5.78C174.376 5.364 175.192 5.156 176.12 5.156C177.08 5.156 177.928 5.364 178.664 5.78C179.416 6.196 180 6.78 180.416 7.532C180.832 8.268 181.04 9.124 181.04 10.1V18.5H177.896V10.844C177.896 10.268 177.784 9.772 177.56 9.356C177.336 8.94 177.024 8.62 176.624 8.396C176.24 8.156 175.784 8.036 175.256 8.036C174.744 8.036 174.288 8.156 173.888 8.396C173.488 8.62 173.176 8.94 172.952 9.356C172.728 9.772 172.616 10.268 172.616 10.844V18.5H169.472ZM190.034 23.78C189.058 23.78 188.154 23.62 187.322 23.3C186.49 22.98 185.77 22.532 185.162 21.956C184.57 21.396 184.138 20.732 183.866 19.964L186.794 18.86C186.986 19.468 187.362 19.956 187.922 20.324C188.498 20.708 189.202 20.9 190.034 20.9C190.674 20.9 191.234 20.78 191.714 20.54C192.21 20.3 192.594 19.948 192.866 19.484C193.138 19.036 193.274 18.492 193.274 17.852V14.876L193.874 15.596C193.426 16.38 192.826 16.972 192.074 17.372C191.322 17.772 190.466 17.972 189.506 17.972C188.29 17.972 187.202 17.692 186.242 17.132C185.282 16.572 184.53 15.804 183.986 14.828C183.442 13.852 183.17 12.756 183.17 11.54C183.17 10.308 183.442 9.212 183.986 8.252C184.53 7.292 185.274 6.54 186.218 5.996C187.162 5.436 188.234 5.156 189.434 5.156C190.41 5.156 191.266 5.364 192.002 5.78C192.754 6.18 193.378 6.764 193.874 7.532L193.442 8.324V5.444H196.418V17.852C196.418 18.988 196.138 20.004 195.578 20.9C195.034 21.796 194.282 22.5 193.322 23.012C192.378 23.524 191.282 23.78 190.034 23.78ZM189.89 15.068C190.562 15.068 191.146 14.924 191.642 14.636C192.154 14.332 192.554 13.916 192.842 13.388C193.13 12.86 193.274 12.252 193.274 11.564C193.274 10.892 193.122 10.292 192.818 9.764C192.53 9.22 192.13 8.796 191.618 8.492C191.122 8.188 190.546 8.036 189.89 8.036C189.234 8.036 188.642 8.188 188.114 8.492C187.586 8.796 187.17 9.22 186.866 9.764C186.578 10.292 186.434 10.892 186.434 11.564C186.434 12.236 186.578 12.836 186.866 13.364C187.17 13.892 187.578 14.308 188.09 14.612C188.618 14.916 189.218 15.068 189.89 15.068ZM210.268 18.788C209.132 18.788 208.076 18.58 207.1 18.164C206.14 17.748 205.308 17.172 204.604 16.436C203.916 15.684 203.412 14.812 203.092 13.82L205.804 12.644C206.236 13.668 206.86 14.476 207.676 15.068C208.492 15.644 209.412 15.932 210.436 15.932C211.012 15.932 211.508 15.844 211.924 15.668C212.356 15.476 212.684 15.22 212.908 14.9C213.148 14.58 213.268 14.196 213.268 13.748C213.268 13.22 213.108 12.788 212.788 12.452C212.484 12.1 212.02 11.828 211.396 11.636L207.964 10.532C206.572 10.1 205.524 9.452 204.82 8.588C204.116 7.724 203.764 6.708 203.764 5.54C203.764 4.516 204.012 3.612 204.508 2.828C205.02 2.044 205.724 1.436 206.62 1.004C207.532 0.555999 208.572 0.331999 209.74 0.331999C210.812 0.331999 211.796 0.523999 212.692 0.907999C213.588 1.276 214.356 1.796 214.996 2.468C215.652 3.124 216.14 3.9 216.46 4.796L213.772 5.996C213.42 5.1 212.892 4.412 212.188 3.932C211.484 3.436 210.668 3.188 209.74 3.188C209.196 3.188 208.716 3.284 208.3 3.476C207.884 3.652 207.556 3.908 207.316 4.244C207.092 4.564 206.98 4.948 206.98 5.396C206.98 5.892 207.14 6.332 207.46 6.716C207.78 7.084 208.268 7.372 208.924 7.58L212.212 8.612C213.636 9.076 214.7 9.716 215.404 10.532C216.124 11.348 216.484 12.356 216.484 13.556C216.484 14.58 216.22 15.484 215.692 16.268C215.164 17.052 214.436 17.668 213.508 18.116C212.58 18.564 211.5 18.788 210.268 18.788ZM219.159 23.3V5.444H222.111V8.036L221.823 7.388C222.271 6.684 222.879 6.14 223.647 5.756C224.415 5.356 225.303 5.156 226.311 5.156C227.543 5.156 228.655 5.46 229.647 6.068C230.639 6.676 231.423 7.492 231.999 8.516C232.591 9.54 232.887 10.692 232.887 11.972C232.887 13.236 232.599 14.388 232.023 15.428C231.447 16.468 230.663 17.292 229.671 17.9C228.679 18.492 227.551 18.788 226.287 18.788C225.343 18.788 224.471 18.604 223.671 18.236C222.887 17.852 222.263 17.308 221.799 16.604L222.303 15.98V23.3H219.159ZM225.927 15.908C226.647 15.908 227.287 15.74 227.847 15.404C228.407 15.068 228.839 14.604 229.143 14.012C229.463 13.42 229.623 12.74 229.623 11.972C229.623 11.204 229.463 10.532 229.143 9.956C228.839 9.364 228.407 8.9 227.847 8.564C227.287 8.212 226.647 8.036 225.927 8.036C225.239 8.036 224.615 8.204 224.055 8.54C223.511 8.876 223.079 9.348 222.759 9.956C222.455 10.548 222.303 11.22 222.303 11.972C222.303 12.74 222.455 13.42 222.759 14.012C223.079 14.604 223.511 15.068 224.055 15.404C224.615 15.74 225.239 15.908 225.927 15.908ZM241.476 18.788C240.132 18.788 238.956 18.484 237.948 17.876C236.94 17.268 236.156 16.444 235.596 15.404C235.036 14.364 234.756 13.212 234.756 11.948C234.756 10.636 235.036 9.476 235.596 8.468C236.172 7.444 236.948 6.636 237.924 6.044C238.916 5.452 240.02 5.156 241.236 5.156C242.26 5.156 243.156 5.324 243.924 5.66C244.708 5.996 245.372 6.46 245.916 7.052C246.46 7.644 246.876 8.324 247.164 9.092C247.452 9.844 247.596 10.66 247.596 11.54C247.596 11.764 247.58 11.996 247.548 12.236C247.532 12.476 247.492 12.684 247.428 12.86H237.348V10.46H245.652L244.164 11.588C244.308 10.852 244.268 10.196 244.044 9.62C243.836 9.044 243.484 8.588 242.988 8.252C242.508 7.916 241.924 7.748 241.236 7.748C240.58 7.748 239.996 7.916 239.484 8.252C238.972 8.572 238.58 9.052 238.308 9.692C238.052 10.316 237.956 11.076 238.02 11.972C237.956 12.772 238.06 13.484 238.332 14.108C238.62 14.716 239.036 15.188 239.58 15.524C240.14 15.86 240.78 16.028 241.5 16.028C242.22 16.028 242.828 15.876 243.324 15.572C243.836 15.268 244.236 14.86 244.524 14.348L247.068 15.596C246.812 16.22 246.412 16.772 245.868 17.252C245.324 17.732 244.676 18.108 243.924 18.38C243.188 18.652 242.372 18.788 241.476 18.788ZM256.268 18.788C254.972 18.788 253.804 18.492 252.764 17.9C251.74 17.292 250.932 16.476 250.34 15.452C249.748 14.412 249.452 13.244 249.452 11.948C249.452 10.652 249.748 9.492 250.34 8.468C250.932 7.444 251.74 6.636 252.764 6.044C253.804 5.452 254.972 5.156 256.268 5.156C257.196 5.156 258.06 5.324 258.86 5.66C259.66 5.98 260.348 6.428 260.924 7.004C261.516 7.564 261.94 8.236 262.196 9.02L259.436 10.22C259.196 9.564 258.788 9.036 258.212 8.636C257.652 8.236 257.004 8.036 256.268 8.036C255.58 8.036 254.964 8.204 254.42 8.54C253.892 8.876 253.476 9.34 253.172 9.932C252.868 10.524 252.716 11.204 252.716 11.972C252.716 12.74 252.868 13.42 253.172 14.012C253.476 14.604 253.892 15.068 254.42 15.404C254.964 15.74 255.58 15.908 256.268 15.908C257.02 15.908 257.676 15.708 258.236 15.308C258.796 14.908 259.196 14.372 259.436 13.7L262.196 14.948C261.94 15.684 261.524 16.348 260.948 16.94C260.372 17.516 259.684 17.972 258.884 18.308C258.084 18.628 257.212 18.788 256.268 18.788ZM264.581 18.5V5.444H267.725V18.5H264.581ZM264.581 3.98V0.619998H267.725V3.98H264.581ZM274.588 18.788C273.676 18.788 272.884 18.636 272.212 18.332C271.54 18.028 271.02 17.596 270.652 17.036C270.284 16.46 270.1 15.796 270.1 15.044C270.1 14.324 270.26 13.684 270.58 13.124C270.9 12.548 271.396 12.068 272.068 11.684C272.74 11.3 273.588 11.028 274.612 10.868L278.884 10.172V12.572L275.212 13.196C274.588 13.308 274.124 13.508 273.82 13.796C273.516 14.084 273.364 14.46 273.364 14.924C273.364 15.372 273.532 15.732 273.868 16.004C274.22 16.26 274.652 16.388 275.164 16.388C275.82 16.388 276.396 16.252 276.892 15.98C277.404 15.692 277.796 15.3 278.068 14.804C278.356 14.308 278.5 13.764 278.5 13.172V9.812C278.5 9.252 278.276 8.788 277.828 8.42C277.396 8.036 276.82 7.844 276.1 7.844C275.428 7.844 274.828 8.028 274.3 8.396C273.788 8.748 273.412 9.22 273.172 9.812L270.604 8.564C270.86 7.876 271.26 7.284 271.804 6.788C272.364 6.276 273.02 5.876 273.772 5.588C274.524 5.3 275.34 5.156 276.22 5.156C277.292 5.156 278.236 5.356 279.052 5.756C279.868 6.14 280.5 6.684 280.948 7.388C281.412 8.076 281.644 8.884 281.644 9.812V18.5H278.668V16.268L279.34 16.22C279.004 16.78 278.604 17.252 278.14 17.636C277.676 18.004 277.148 18.292 276.556 18.5C275.964 18.692 275.308 18.788 274.588 18.788ZM284.55 18.5V0.331999H287.694V18.5H284.55ZM290.597 18.5V5.444H293.741V18.5H290.597ZM290.597 3.98V0.619998H293.741V3.98H290.597ZM301.612 18.788C300.22 18.788 299.004 18.46 297.964 17.804C296.94 17.132 296.236 16.228 295.852 15.092L298.204 13.964C298.54 14.7 299.004 15.276 299.596 15.692C300.204 16.108 300.876 16.316 301.612 16.316C302.188 16.316 302.644 16.188 302.98 15.932C303.316 15.676 303.484 15.34 303.484 14.924C303.484 14.668 303.412 14.46 303.268 14.3C303.14 14.124 302.956 13.98 302.716 13.868C302.492 13.74 302.244 13.636 301.972 13.556L299.836 12.956C298.732 12.636 297.892 12.148 297.316 11.492C296.756 10.836 296.476 10.06 296.476 9.164C296.476 8.364 296.676 7.668 297.076 7.076C297.492 6.468 298.06 5.996 298.78 5.66C299.516 5.324 300.356 5.156 301.3 5.156C302.532 5.156 303.62 5.452 304.564 6.044C305.508 6.636 306.18 7.468 306.58 8.54L304.18 9.668C303.956 9.076 303.58 8.604 303.052 8.252C302.524 7.9 301.932 7.724 301.276 7.724C300.748 7.724 300.332 7.844 300.028 8.084C299.724 8.324 299.572 8.636 299.572 9.02C299.572 9.26 299.636 9.468 299.764 9.644C299.892 9.82 300.068 9.964 300.292 10.076C300.532 10.188 300.804 10.292 301.108 10.388L303.196 11.012C304.268 11.332 305.092 11.812 305.668 12.452C306.26 13.092 306.556 13.876 306.556 14.804C306.556 15.588 306.348 16.284 305.932 16.892C305.516 17.484 304.94 17.948 304.204 18.284C303.468 18.62 302.604 18.788 301.612 18.788ZM314.924 18.644C313.452 18.644 312.308 18.244 311.492 17.444C310.692 16.628 310.292 15.484 310.292 14.012V8.252H308.036V5.444H308.276C308.916 5.444 309.412 5.276 309.764 4.94C310.116 4.604 310.292 4.116 310.292 3.476V2.468H313.436V5.444H316.436V8.252H313.436V13.844C313.436 14.276 313.508 14.644 313.652 14.948C313.812 15.252 314.052 15.484 314.372 15.644C314.708 15.804 315.132 15.884 315.644 15.884C315.756 15.884 315.884 15.876 316.028 15.86C316.188 15.844 316.34 15.828 316.484 15.812V18.5C316.26 18.532 316.004 18.564 315.716 18.596C315.428 18.628 315.164 18.644 314.924 18.644ZM323.854 18.788C322.462 18.788 321.246 18.46 320.206 17.804C319.182 17.132 318.478 16.228 318.094 15.092L320.446 13.964C320.782 14.7 321.246 15.276 321.838 15.692C322.446 16.108 323.118 16.316 323.854 16.316C324.43 16.316 324.886 16.188 325.222 15.932C325.558 15.676 325.726 15.34 325.726 14.924C325.726 14.668 325.654 14.46 325.51 14.3C325.382 14.124 325.198 13.98 324.958 13.868C324.734 13.74 324.486 13.636 324.214 13.556L322.078 12.956C320.974 12.636 320.134 12.148 319.558 11.492C318.998 10.836 318.718 10.06 318.718 9.164C318.718 8.364 318.918 7.668 319.318 7.076C319.734 6.468 320.302 5.996 321.022 5.66C321.758 5.324 322.598 5.156 323.542 5.156C324.774 5.156 325.862 5.452 326.806 6.044C327.75 6.636 328.422 7.468 328.822 8.54L326.422 9.668C326.198 9.076 325.822 8.604 325.294 8.252C324.766 7.9 324.174 7.724 323.518 7.724C322.99 7.724 322.574 7.844 322.27 8.084C321.966 8.324 321.814 8.636 321.814 9.02C321.814 9.26 321.878 9.468 322.006 9.644C322.134 9.82 322.31 9.964 322.534 10.076C322.774 10.188 323.046 10.292 323.35 10.388L325.438 11.012C326.51 11.332 327.334 11.812 327.91 12.452C328.502 13.092 328.798 13.876 328.798 14.804C328.798 15.588 328.59 16.284 328.174 16.892C327.758 17.484 327.182 17.948 326.446 18.284C325.71 18.62 324.846 18.788 323.854 18.788Z" fill="url(#paint0_linear_6006_322)"/>
<defs>
<linearGradient id="paint0_linear_6006_322" x1="36.5252" y1="11.5956" x2="89.5146" y2="130.427" gradientUnits="userSpaceOnUse">
<stop stop-color="#CBB585"/>
<stop offset="1" stop-color="#B98836"/>
</linearGradient>
</defs>
</svg>
