<svg width="38" height="38" viewBox="0 0 38 38" fill="none" xmlns="http://www.w3.org/2000/svg">
<path d="M35.0866 32.2875C35.0866 32.2875 30.869 25.0387 30.1124 23.7386C30.9732 23.476 31.8901 23.2441 32.2711 22.5863C32.9061 21.4902 31.7758 19.692 32.0726 18.5171C32.3783 17.3079 34.183 16.2616 34.183 15.0325C34.183 13.835 32.3172 12.4361 32.0113 11.2339C31.7125 10.0593 32.8393 8.25918 32.2023 7.16438C31.5653 6.06948 29.4436 6.15944 28.5702 5.31901C27.6716 4.45415 27.6743 2.33808 26.5904 1.75849C25.5021 1.17674 23.7333 2.35246 22.525 2.07396C21.3304 1.79864 20.2631 0 19.0153 0C17.749 0 15.7349 2.04028 15.419 2.1137C14.2113 2.39446 12.4402 1.22162 11.3531 1.80583C10.2702 2.38737 10.2768 4.50364 9.37983 5.36995C8.50788 6.21192 6.38606 6.12586 5.75102 7.22199C5.11608 8.31792 6.2463 10.1156 5.94962 11.2911C5.65213 12.4696 3.78458 13.6637 3.78458 15.0267C3.78458 16.2559 5.5938 17.2989 5.90136 18.5075C6.20029 19.6822 5.07346 21.4821 5.71046 22.5773C6.05725 23.1734 6.84407 23.4181 7.62986 23.6534C7.72157 23.6808 7.89501 23.7834 7.77753 23.9546C7.23994 24.8825 2.91303 32.3501 2.91303 32.3501C2.56881 32.9441 2.84834 33.4532 3.53401 33.4821L6.89028 33.6221C7.57595 33.6509 8.4361 34.1492 8.80209 34.7297L10.593 37.5716C10.959 38.1521 11.5397 38.1412 11.8839 37.5473C11.8839 37.5473 16.8949 28.896 16.897 28.8935C16.9975 28.776 17.0985 28.8002 17.1469 28.8412C17.6952 29.3081 18.4595 29.7738 19.0974 29.7738C19.723 29.7738 20.3023 29.3354 20.8753 28.8465C20.922 28.8067 21.0354 28.7253 21.1184 28.8943C21.1197 28.897 26.1252 37.501 26.1252 37.501C26.4703 38.0942 27.0511 38.1042 27.416 37.523L29.2019 34.6777C29.5668 34.0968 30.4261 33.5966 31.1117 33.5667L34.4677 33.4205C35.1531 33.3904 35.4317 32.8805 35.0866 32.2875ZM24.562 24.5054C20.8511 26.6643 16.3969 26.4329 12.9947 24.287C8.00952 21.0938 6.36922 14.4882 9.36607 9.31577C12.3971 4.08363 19.0601 2.23744 24.3393 5.11271C24.3671 5.1278 24.3945 5.14341 24.422 5.15881C24.4611 5.18048 24.5001 5.20246 24.5391 5.22464C26.1678 6.16365 27.5801 7.52647 28.5914 9.26473C31.6822 14.5776 29.8747 21.4146 24.562 24.5054Z" fill="#C4B0A8"/>
<path d="M23.7136 6.78813C23.6982 6.7792 23.6825 6.77088 23.6671 6.76205C20.847 5.12987 17.2526 5.01054 14.2402 6.76318C9.76978 9.36395 8.24861 15.1166 10.8494 19.5869C11.643 20.951 12.7305 22.04 13.9852 22.8215C14.0919 22.889 14.1998 22.9555 14.3101 23.0194C18.7853 25.612 24.5349 24.0805 27.1274 19.6055C29.7199 15.1303 28.1888 9.38079 23.7136 6.78813ZM24.8331 14.104L23.2661 15.6313C22.7808 16.1043 22.4775 17.038 22.5922 17.706L22.9621 19.8626C23.0767 20.5306 22.6797 20.8191 22.0797 20.5037L20.1429 19.4854C19.5429 19.1701 18.5613 19.1701 17.9614 19.4854L16.0246 20.5037C15.4247 20.8191 15.0276 20.5306 15.1422 19.8626L15.5121 17.706C15.6267 17.038 15.3233 16.1043 14.838 15.6313L13.2712 14.104C12.7857 13.631 12.9375 13.1642 13.6082 13.0666L15.7735 12.7519C16.4442 12.6545 17.2384 12.0775 17.5384 11.4697L18.5068 9.50761C18.8067 8.89988 19.2976 8.89988 19.5975 9.50761L20.566 11.4697C20.8659 12.0775 21.66 12.6545 22.3308 12.7519L24.4962 13.0666C25.1667 13.1642 25.3184 13.631 24.8331 14.104Z" fill="#C4B0A8"/>
</svg>
