<svg width="38" height="38" viewBox="0 0 38 38" fill="none" xmlns="http://www.w3.org/2000/svg">
<g clip-path="url(#clip0_6006_529)">
<path d="M3.33984 13.4325H1.11328C0.497934 13.4325 0 13.9304 0 14.5458C0 15.1611 0.497934 15.6591 1.11328 15.6591H3.33984C3.95519 15.6591 4.45312 15.1611 4.45312 14.5458C4.45312 13.9304 3.95519 13.4325 3.33984 13.4325Z" fill="#C4B0A8"/>
<path d="M3.87503 7.86601L2.30078 6.29183C1.86593 5.85699 1.16137 5.85699 0.726526 6.29183C0.291679 6.72668 0.291679 7.43124 0.726526 7.86609L2.30078 9.44027C2.7357 9.87519 3.44011 9.87519 3.87503 9.44027C4.30988 9.00542 4.30988 8.30086 3.87503 7.86601Z" fill="#C4B0A8"/>
<path d="M3.87503 19.6512C3.44019 19.2164 2.73563 19.2163 2.30078 19.6512L0.726526 21.2255C0.291679 21.6603 0.291679 22.3649 0.726526 22.7997C1.16145 23.2347 1.86586 23.2347 2.30078 22.7997L3.87503 21.2255C4.30988 20.7906 4.30988 20.0861 3.87503 19.6512Z" fill="#C4B0A8"/>
<path d="M36.8867 13.4325H34.6602C34.0448 13.4325 33.5469 13.9304 33.5469 14.5458C33.5469 15.1611 34.0448 15.6591 34.6602 15.6591H36.8867C37.5021 15.6591 38 15.1611 38 14.5458C38 13.9304 37.5021 13.4325 36.8867 13.4325Z" fill="#C4B0A8"/>
<path d="M37.2735 6.29183C36.8386 5.85699 36.1341 5.85699 35.6992 6.29183L34.125 7.86609C33.6901 8.30094 33.6901 9.00549 34.125 9.44034C34.5599 9.87526 35.2643 9.87526 35.6992 9.44034L37.2735 7.86609C37.7083 7.43124 37.7083 6.72668 37.2735 6.29183Z" fill="#C4B0A8"/>
<path d="M37.2735 21.2254L35.6992 19.6512C35.2644 19.2164 34.5598 19.2164 34.125 19.6512C33.6901 20.0861 33.6901 20.7906 34.125 21.2255L35.6992 22.7996C36.1341 23.2346 36.8385 23.2346 37.2735 22.7996C37.7083 22.3648 37.7083 21.6602 37.2735 21.2254Z" fill="#C4B0A8"/>
<path d="M27.4204 2.98651C24.2806 0.433835 20.1613 -0.548969 16.131 0.29898C11.1061 1.34814 7.01386 5.50149 5.94845 10.5243C5.04283 14.7981 6.16042 19.0881 9.01324 22.2953C10.1666 23.5932 10.8702 25.1597 11.1009 26.792H14.547V16.7724C14.547 16.3413 17.8114 9.98037 18.0042 9.5948C18.3826 8.8403 19.6176 8.8403 19.996 9.5948C20.1979 9.9987 23.4532 16.3629 23.4532 16.7724V26.792H26.9031C27.1418 25.1675 27.866 23.5761 29.0522 22.2225C31.1853 19.7905 32.3595 16.668 32.3595 13.4325C32.3595 9.39145 30.5591 5.53704 27.4204 2.98651Z" fill="#C4B0A8"/>
<path d="M19 18.9011C18.2473 18.9011 17.4975 18.7699 16.7734 18.5305V26.792H21.2266V18.5305C20.5025 18.7699 19.7527 18.9011 19 18.9011Z" fill="#C4B0A8"/>
<path d="M11.207 29.0184V30.1317C11.207 31.9734 12.7052 33.4716 14.5469 33.4716H23.4531C25.2948 33.4716 26.793 31.9734 26.793 30.1317V29.0184H11.207Z" fill="#C4B0A8"/>
<path d="M19 12.5823L17.1602 16.2619C18.3491 16.749 19.6508 16.749 20.8398 16.2619L19 12.5823Z" fill="#C4B0A8"/>
<path d="M13.6387 35.6981C14.0998 36.9912 15.324 37.9989 16.7734 37.9989H21.2266C22.6761 37.9989 23.9002 36.9912 24.3614 35.6981H13.6387Z" fill="#C4B0A8"/>
</g><defs><clipPath id="clip0_6006_529"><rect width="38" height="38" fill="white"/></clipPath></defs></svg>
