<svg width="38" height="38" viewBox="0 0 38 38" fill="none" xmlns="http://www.w3.org/2000/svg">
<g clip-path="url(#clip0_6006_820)">
<path d="M23.061 4.2693C23.2201 4.8632 23.8306 5.21566 24.4245 5.05646C25.0184 4.89734 25.3709 4.28689 25.2117 3.69299L24.4433 0.8254C24.2841 0.231501 23.6737 -0.120963 23.0798 0.0382358C22.4859 0.197361 22.1334 0.80781 22.2926 1.40171L23.061 4.2693Z" fill="#C4B0A8"/>
<path d="M20.2379 7.49529C20.6726 7.93006 21.3775 7.93006 21.8123 7.49529C22.247 7.06052 22.247 6.35566 21.8123 5.92089L19.713 3.82169C19.2782 3.38691 18.5734 3.38691 18.1386 3.82169C17.7038 4.25646 17.7038 4.96131 18.1386 5.39609L20.2379 7.49529Z" fill="#C4B0A8"/>
<path d="M27.906 5.86249C28.4999 6.02161 29.1104 5.66915 29.2695 5.07525L30.0378 2.20759C30.1969 1.61369 29.8445 1.00324 29.2506 0.844113C28.6567 0.684988 28.0462 1.03745 27.8871 1.63135L27.1188 4.49902C26.9596 5.09291 27.3121 5.70336 27.906 5.86249Z" fill="#C4B0A8"/>
<path d="M37.664 7.20157C36.9723 6.00353 35.4403 5.59303 34.2423 6.28475L17.6934 15.8392L18.7266 11.9832C19.3101 9.80554 18.0177 7.56725 15.8401 6.98381C15.2462 6.82469 14.6358 7.17715 14.4767 7.77105L12.0067 16.9888C11.5706 18.6165 10.5267 19.9768 9.06745 20.8194L0.556641 25.7331C0.212191 25.932 0 26.2995 0 26.6972V36.8866C0 37.5014 0.498453 37.9999 1.11328 37.9999H13.1522C13.3476 37.9999 13.5397 37.9485 13.7089 37.8507L15.8805 36.5969L17.7088 37.0868C19.145 37.4716 20.6451 37.2742 21.9327 36.5307L33.335 29.9476C34.533 29.2559 34.9435 27.7239 34.2518 26.5259C33.5601 25.3279 32.0281 24.9174 30.8301 25.6091L32.1156 24.8669C33.3136 24.1752 33.7241 22.6432 33.0324 21.4452C32.3407 20.2471 30.8087 19.8366 29.6107 20.5284C30.8087 19.8366 31.2192 18.3047 30.5275 17.1067C29.8358 15.9086 28.3038 15.4981 27.1058 16.1898L36.7471 10.6234C37.9452 9.93163 38.3557 8.39968 37.664 7.20157Z" fill="#C4B0A8"/>
</g>
<defs>
<clipPath id="clip0_6006_820">
<rect width="38" height="38" fill="white"/>
</clipPath>
</defs>
</svg>
