<svg width="38" height="38" fill="none" xmlns="http://www.w3.org/2000/svg"><g clip-path="url(#clip0_6006_810)" fill="#C4B0A8"><path d="M36.887 8.94h-1.694a10.016 10.016 0 00-.41-.988l1.198-1.198a1.113 1.113 0 000-1.574l-3.16-3.161a1.113 1.113 0 00-1.575 0l-1.198 1.198a10 10 0 00-.989-.41V1.113A1.112 1.112 0 0027.946 0h-4.47c-.615 0-1.114.498-1.114 1.113v1.694c-.336.119-.666.256-.988.41l-1.198-1.198a1.113 1.113 0 00-1.575 0l-3.16 3.161a1.113 1.113 0 000 1.574l1.197 1.199c-.154.322-.291.653-.41.99h-1.7a1.114 1.114 0 00-1.113 1.114v1.131h1.113c1.316 0 2.457.765 3 1.874.346-.118.712-.18 1.088-.18.893 0 1.731.347 2.362.978l.132.132a4.905 4.905 0 112.898 2.898l.132.132c.93.93 1.196 2.28.796 3.448a3.344 3.344 0 011.875 3.002v1.113h1.132c.615 0 1.113-.498 1.114-1.112l.001-1.7c.337-.12.667-.257.99-.411l1.198 1.198c.434.435 1.14.435 1.574 0l3.161-3.161a1.113 1.113 0 000-1.575l-1.198-1.198c.154-.322.291-.652.41-.988h1.694c.614 0 1.113-.498 1.113-1.113v-4.47c0-.616-.498-1.114-1.113-1.114z"/><path d="M23.472 22.358h-1.695a10.001 10.001 0 00-.41-.989l1.198-1.198a1.113 1.113 0 000-1.575l-3.161-3.162a1.113 1.113 0 00-1.575 0l-1.198 1.199a10 10 0 00-.99-.41v-1.695c0-.614-.498-1.113-1.113-1.113h-4.471c-.615 0-1.114.499-1.114 1.113v1.694a10.03 10.03 0 00-.989.41l-1.198-1.198a1.113 1.113 0 00-1.575 0L2.02 18.596a1.113 1.113 0 000 1.575l1.199 1.198a9.997 9.997 0 00-.41.99H1.112c-.615 0-1.113.498-1.113 1.113v4.471c0 .615.498 1.114 1.113 1.114h1.694c.12.336.256.666.41.989L2.02 31.244a1.113 1.113 0 000 1.575l3.162 3.162c.435.434 1.14.434 1.575 0l1.198-1.199c.323.155.653.292.99.41v1.695c0 .614.498 1.113 1.113 1.113h4.471c.615 0 1.114-.498 1.114-1.113v-1.694a10 10 0 00.989-.41l1.198 1.198c.435.434 1.14.434 1.575 0l3.162-3.162a1.113 1.113 0 000-1.575l-1.199-1.198c.155-.323.292-.653.41-.99h1.695c.614 0 1.113-.498 1.113-1.113v-4.471c0-.615-.498-1.114-1.113-1.114zm-5.338 3.35a5.842 5.842 0 11-11.683 0 5.842 5.842 0 0111.683 0zm13.12 7.134l.596-.12a1.113 1.113 0 00.567-1.88l-3.686-3.686a1.113 1.113 0 10-1.575 1.575l2.22 2.219-.597.12a1.113 1.113 0 00-.567 1.879l3.687 3.686a1.11 1.11 0 001.574 0 1.113 1.113 0 000-1.574l-2.219-2.22zM6.881 5.16l-.596.121a1.113 1.113 0 00-.567 1.879l3.687 3.686a1.11 1.11 0 001.574 0 1.113 1.113 0 000-1.574L8.76 7.052l.596-.12a1.113 1.113 0 00.567-1.878L6.236 1.367a1.113 1.113 0 00-1.574 1.574l2.22 2.22z"/></g><defs><clipPath id="clip0_6006_810"><path fill="#fff" d="M0 0h38v38H0z"/></clipPath></defs></svg>