<svg width="38" height="38" fill="none" xmlns="http://www.w3.org/2000/svg"><g clip-path="url(#clip0_6006_806)" fill="#C4B0A8"><path d="M19 29.02c.615 0 1.113-.498 1.113-1.114v-1.165a20.973 20.973 0 005.878-1.157l4.24 6.954a3.326 3.326 0 003.523 1.502l2.184 3.43a1.114 1.114 0 001.897-1.167l-2.185-3.43c.866-1.07 1.014-2.664.252-3.901l-4.045-6.578c1.04-.8 2.03-1.67 2.91-2.652a1.114 1.114 0 00-1.66-1.485c-.735.821-1.56 1.551-2.422 2.231l-4.517-7.343c-.925 2.164-2.813 3.797-5.113 4.431l3.74 6.067c-1.52.486-3.093.772-4.682.864v-1.054a1.113 1.113 0 10-2.226 0v1.054a18.958 18.958 0 01-4.682-.864l3.74-6.066c-2.3-.634-4.189-2.268-5.114-4.432l-4.516 7.343c-.862-.68-1.687-1.41-2.422-2.23a1.114 1.114 0 00-1.66 1.485c.88.981 1.869 1.85 2.91 2.65l-4.046 6.578c-.761 1.238-.613 2.832.253 3.901l-2.185 3.43a1.114 1.114 0 001.896 1.169l2.185-3.43a3.321 3.321 0 003.522-1.504l4.24-6.953a20.972 20.972 0 005.879 1.157v1.165c0 .616.497 1.114 1.113 1.114z"/><path d="M13.434 10.094A5.573 5.573 0 0019 15.66a5.573 5.573 0 005.566-5.566c0-2.688-1.915-5.011-4.453-5.528v-2.34h1.114a1.113 1.113 0 100-2.226h-4.454a1.113 1.113 0 100 2.227h1.114v2.339c-2.538.517-4.453 2.84-4.453 5.528zM19 11.207a1.113 1.113 0 110-2.227 1.113 1.113 0 010 2.227z"/></g><defs><clipPath id="clip0_6006_806"><path fill="#fff" d="M0 0h38v38H0z"/></clipPath></defs></svg>