<svg width="38" height="38" viewBox="0 0 38 38" fill="none" xmlns="http://www.w3.org/2000/svg">
<path d="M9.81149 23.0903C6.98613 23.0903 4.6875 25.389 4.6875 28.2142C4.6875 31.0396 6.98613 33.3382 9.81149 33.3382C12.6368 33.3382 14.9355 31.0396 14.9355 28.2142C14.9354 25.389 12.6368 23.0903 9.81149 23.0903Z" fill="#C4B0A8"/>
<path d="M28.1762 23.0903C25.3508 23.0903 23.0522 25.389 23.0522 28.2142C23.0522 31.0396 25.3509 33.3382 28.1762 33.3382C31.0015 33.3382 33.3001 31.0396 33.3001 28.2142C33.3001 25.389 31.0015 23.0903 28.1762 23.0903Z" fill="#C4B0A8"/>
<path d="M4.63748 10.2891C2.08035 10.2891 0 12.3694 0 14.9265V26.7153C0 28.1557 1.17184 29.3275 2.6122 29.3275H2.76057C2.70357 28.9647 2.67366 28.5929 2.67366 28.2144C2.67366 24.6573 5.28927 21.6998 8.69814 21.1636V10.2891L4.63748 10.2891Z" fill="#C4B0A8"/>
<path d="M35.0402 4.66187H13.8843C12.2523 4.66187 10.9245 5.98964 10.9245 7.62163L10.9243 21.1634C14.3335 21.6994 16.9492 24.6571 16.9492 28.2143C16.9492 28.5929 16.9193 28.9646 16.8623 29.3274H21.1253C21.0682 28.9646 21.0383 28.5929 21.0383 28.2143C21.0383 24.2785 24.2403 21.0765 28.1762 21.0765C32.112 21.0765 35.314 24.2785 35.314 28.2143C35.314 28.5906 35.2845 28.9601 35.2281 29.3208C36.7728 29.2234 37.9999 27.9365 37.9999 26.3677V7.62156C38 5.98964 36.6722 4.66187 35.0402 4.66187Z" fill="#C4B0A8"/>
</svg>
