<svg width="38" height="38" viewBox="0 0 38 38" fill="none" xmlns="http://www.w3.org/2000/svg">
<g clip-path="url(#clip0_6006_568)">
<path d="M26.5146 14.9922C25.1312 14.9922 24.0098 16.1136 24.0098 17.4971V15.2705C24.0098 13.8871 22.8883 12.7656 21.5049 12.7656C20.1214 12.7656 19 13.8871 19 15.2705V13.7861C19 12.4027 17.8786 11.2812 16.4951 11.2812C15.1117 11.2812 13.9902 12.4027 13.9902 13.7861V20.373C13.9902 18.631 12.578 17.2188 10.8359 17.2188C9.8112 17.2188 8.98047 18.0495 8.98047 19.0742V26.6215C8.98047 29.4637 10.3875 32.1496 12.6914 33.7779V36.8867C12.6914 37.5015 13.1899 38 13.8047 38H24.1953C24.8101 38 25.3086 37.5015 25.3086 36.8867V33.7779C27.6125 32.1497 29.0195 29.4637 29.0195 26.6215V17.4971C29.0195 16.1136 27.8981 14.9922 26.5146 14.9922Z" fill="#C4B0A8"/>
<path d="M13.5329 7.14856L17.1829 3.49849C15.4513 2.54322 13.4201 2.18504 11.4461 2.52429L9.24784 0.32608C8.81307 -0.108693 8.10821 -0.108693 7.67344 0.32608L0.32608 7.67337C-0.108693 8.10814 -0.108693 8.81299 0.32608 9.24777L2.52429 11.446C2.04662 14.2264 2.95083 17.1206 4.9606 19.1304L6.75394 20.9237V19.0743C6.75394 16.8234 8.58514 14.9922 10.836 14.9922C11.1524 14.9922 11.4621 15.0212 11.7637 15.0739V12.6038C11.4504 10.6437 12.0757 8.6057 13.5329 7.14856Z" fill="#C4B0A8"/>
<path d="M37.674 7.67337L30.3267 0.32608C29.8919 -0.108693 29.187 -0.108693 28.7523 0.32608L26.554 2.52437C23.7736 2.04655 20.8794 2.95083 18.8696 4.96067L15.1073 8.72304C14.8707 8.95965 14.6683 9.22001 14.5005 9.49722C15.1071 9.214 15.7827 9.05472 16.4951 9.05472C17.9478 9.05472 19.2491 9.71334 20.1177 10.747C20.5566 10.6121 21.0223 10.5391 21.5049 10.5391C23.2338 10.5391 24.7484 11.4717 25.5739 12.8599C25.8781 12.7983 26.1926 12.7657 26.5146 12.7657C29.1236 12.7657 31.2461 14.8882 31.2461 17.4971V20.9237L33.0394 19.1304C35.0491 17.1206 35.9533 14.2265 35.4757 11.446L37.6739 9.24777C38.1087 8.81307 38.1087 8.10814 37.674 7.67337Z" fill="#C4B0A8"/>
</g>
<defs>
<clipPath id="clip0_6006_568">
<rect width="38" height="38" fill="white"/>
</clipPath>
</defs>
</svg>
