<svg width="38" height="38" viewBox="0 0 38 38" fill="none" xmlns="http://www.w3.org/2000/svg">
<g clip-path="url(#clip0_6006_563)">
<path d="M27.9805 0C22.4468 0 17.9609 4.56007 17.9609 10.0938C17.9609 13.5667 19.7301 16.6979 22.4141 18.4955V19.0742C22.4141 19.689 22.9125 20.1875 23.5273 20.1875H26.8672V15.0078L24.9668 13.1075C24.532 12.6726 24.532 11.9681 24.9668 11.5332C25.4017 11.0984 26.1062 11.0984 26.5411 11.5332L27.9805 12.9726L29.4199 11.5331C29.8548 11.0983 30.5593 11.0983 30.9942 11.5331C31.429 11.968 31.429 12.6726 30.9942 13.1074L29.0938 15.0078V20.1875H32.4336C33.0484 20.1875 33.5469 19.689 33.5469 19.0742V18.4955C36.2308 16.6979 38 13.5667 38 10.0938C38 4.56007 33.5141 0 27.9805 0Z" fill="#C4B0A8"/>
<path d="M27.9805 29.0938C28.5958 29.0938 29.0938 28.5958 29.0938 27.9805V26.6621C30.3868 26.201 31.3203 24.9768 31.3203 23.5273V22.4141H24.6406V23.5273C24.6406 24.9768 25.5741 26.201 26.8672 26.6621V27.9805C26.8672 28.5958 27.3651 29.0938 27.9805 29.0938Z" fill="#C4B0A8"/>
<path d="M1.11328 29.0938H4.49023C5.09133 29.0938 5.67024 29.2496 6.04883 29.4722L15.2223 37.1984C16.0906 37.7328 17.0702 38 18.0722 38H31.3203C32.5449 38 33.5469 36.998 33.5469 35.7734C33.5469 34.5488 32.5449 33.5469 31.3203 33.5469H21.3008C20.4101 33.5469 19.564 33.1907 18.9406 32.5672L12.9066 26.5331C12.4835 26.1101 12.4835 25.3977 12.9066 24.9746C13.3519 24.5293 14.0421 24.5293 14.4875 24.9746C14.7094 25.1993 20.2207 30.7214 20.5437 30.9641C21.5391 31.5494 22.605 31.3815 23.3491 30.6746C24.2175 29.8062 24.2175 28.3812 23.3491 27.5128C23.1259 27.2909 17.3874 21.568 15.4003 19.5863C14.3539 18.5398 12.9512 17.9609 11.4817 17.9609H1.11328C0.48977 17.9609 0 18.4507 0 19.0742V27.9805C0 28.604 0.48977 29.0938 1.11328 29.0938Z" fill="#C4B0A8"/>
</g>
<defs>
<clipPath id="clip0_6006_563">
<rect width="38" height="38" fill="white"/>
</clipPath>
</defs>
</svg>
