<svg width="38" height="38" viewBox="0 0 38 38" fill="none" xmlns="http://www.w3.org/2000/svg">
<g clip-path="url(#clip0_6006_704)">
<path d="M14.1793 17.5149C10.7128 17.5149 7.89258 20.3351 7.89258 23.8016C7.89258 27.2681 10.7128 30.0883 14.1793 30.0883C17.6458 30.0883 20.466 27.2681 20.466 23.8016C20.466 20.3351 17.6458 17.5149 14.1793 17.5149ZM16.7961 25.6947C16.6427 26.607 16.0456 27.3458 15.2468 27.7067C15.1815 28.2586 14.7127 28.6869 14.1432 28.6869C13.6234 28.6869 13.1881 28.3297 13.0662 27.8478C12.7167 27.7624 12.3565 27.6059 11.9739 27.3211C11.4812 26.9544 11.3792 26.2576 11.7459 25.7649C12.1126 25.2723 12.8094 25.1701 13.3021 25.5369C13.4951 25.6806 13.5835 25.7253 14.1358 25.7221C14.5252 25.7195 14.5958 25.3663 14.6026 25.326C14.6334 25.1425 14.5509 25.0752 14.3978 25.0212C13.7037 24.7758 12.9894 24.4925 12.4681 24.0836C12.4581 24.0759 12.4483 24.0679 12.4387 24.0598C11.7421 23.4742 11.4297 22.6585 11.5814 21.8219C11.7251 21.0303 12.2808 20.3225 13.0355 19.9402C13.0806 19.3674 13.5588 18.9164 14.1432 18.9164C14.6853 18.9164 15.1363 19.3045 15.2348 19.8179C15.5449 19.9368 15.8417 20.113 16.1139 20.3475C16.5793 20.7484 16.6316 21.4507 16.2308 21.916C15.8299 22.3814 15.1277 22.4338 14.6623 22.0328C14.4324 21.8349 14.136 21.8085 13.9011 22.0199C13.8015 22.1095 13.7231 22.2448 13.8563 22.3453C14.1332 22.5541 14.6857 22.7637 15.1391 22.924C16.3375 23.3477 17.0035 24.4611 16.7961 25.6947Z" fill="#C4B0A8"/>
<path d="M27.3956 25.2307L27.1588 25.0964C27.2471 24.2137 27.2445 23.3256 27.151 22.4419L27.3887 22.3053C28.2172 21.8292 28.5646 20.8053 28.1968 19.9232L26.7971 16.5681C26.4289 15.6858 25.4566 15.2124 24.5352 15.4667L24.2733 15.539L24.2714 15.5396C23.7091 14.8512 23.0799 14.2247 22.3906 13.6667L22.4618 13.4032C22.711 12.4807 22.2325 11.511 21.3487 11.1474L17.9867 9.76473C17.1024 9.40091 16.08 9.75391 15.6084 10.5853L15.4739 10.8222C14.5916 10.7337 13.7036 10.7363 12.8201 10.8299L12.6839 10.5926C12.208 9.76369 11.1837 9.41596 10.3015 9.78401L6.94639 11.1835C6.06438 11.5515 5.59083 12.5237 5.84477 13.4449L5.91758 13.7092C5.2293 14.2714 4.60264 14.9007 4.04449 15.59L3.7818 15.5189C2.85826 15.2687 1.88876 15.7475 1.52524 16.6318L0.142531 19.9937C-0.22092 20.8774 0.131558 21.8997 0.962708 22.3719L1.19974 22.5065C1.11137 23.3891 1.11396 24.2772 1.20746 25.1608L0.970122 25.2971C0.141197 25.7731 -0.206388 26.7972 0.161586 27.6795L1.5612 31.0347C1.92924 31.9167 2.90112 32.39 3.82265 32.1361L4.08682 32.0633C4.64905 32.7518 5.27831 33.3784 5.96755 33.9364L5.89652 34.1992C5.64673 35.1219 6.1251 36.092 7.00934 36.4558L10.3712 37.8383C10.6059 37.935 10.8504 37.981 11.0919 37.981C11.7593 37.981 12.4028 37.6288 12.7493 37.0184L12.8841 36.7811C13.7666 36.8693 14.655 36.8669 15.5388 36.7734L15.6755 37.0112C16.1515 37.8397 17.1755 38.187 18.0576 37.8192L21.4125 36.4196C22.2949 36.0515 22.7685 35.079 22.5141 34.1576L22.4414 33.8938C23.1295 33.3317 23.7562 32.7024 24.3144 32.0129L24.5776 32.084C25.5002 32.3331 26.4699 31.8549 26.8335 30.9711L28.2162 27.6091C28.5799 26.725 28.2271 25.7025 27.3956 25.2307ZM14.1792 32.3126C9.48626 32.3126 5.66823 28.4946 5.66823 23.8016C5.66823 19.1086 9.48626 15.2906 14.1792 15.2906C18.8722 15.2906 22.6903 19.1086 22.6903 23.8016C22.6903 28.4946 18.8722 32.3126 14.1792 32.3126Z" fill="#C4B0A8"/>
<path d="M36.8878 6.45107H36.4884C36.3292 5.58574 35.9886 4.78344 35.5065 4.08537L35.7902 3.80163C36.2245 3.36737 36.2245 2.66315 35.7902 2.22882C35.356 1.79456 34.6517 1.79456 34.2174 2.22882L33.9337 2.51257C33.2356 2.03041 32.4333 1.68987 31.568 1.53068V1.1312C31.568 0.516991 31.07 0.019043 30.4558 0.019043C29.8416 0.019043 29.3437 0.516991 29.3437 1.1312V1.53068C28.4783 1.68987 27.676 2.03041 26.978 2.51257L26.6941 2.22874C26.2599 1.79449 25.5557 1.79449 25.1213 2.22874C24.687 2.663 24.687 3.36722 25.1213 3.80155L25.4051 4.08537C24.923 4.78344 24.5824 5.58567 24.4233 6.45107H24.0238C23.4096 6.45107 22.9116 6.94902 22.9116 7.56323C22.9116 8.17743 23.4096 8.67538 24.0238 8.67538H24.4233C24.5825 9.54101 24.9232 10.3436 25.4057 11.0418L25.1231 11.323C24.6878 11.7564 24.6861 12.4606 25.1194 12.8959C25.3368 13.1142 25.6222 13.2235 25.9077 13.2235C26.1914 13.2235 26.4753 13.1155 26.6923 12.8996L26.9788 12.6145C27.6767 13.0963 28.4787 13.4366 29.3437 13.5957V13.9953C29.3437 14.6095 29.8416 15.1074 30.4558 15.1074C31.07 15.1074 31.568 14.6095 31.568 13.9953V13.5957C32.425 13.4381 33.2204 13.1029 33.9136 12.6281L34.262 12.9399C34.4742 13.1299 34.7393 13.2235 35.0035 13.2235C35.3087 13.2235 35.6128 13.0985 35.8324 12.8532C36.2421 12.3956 36.2033 11.6925 35.7457 11.2828L35.4945 11.0578C35.9829 10.3558 36.3279 9.54776 36.4884 8.67538H36.8878C37.502 8.67538 38 8.17743 38 7.56323C38 6.94902 37.502 6.45107 36.8878 6.45107ZM31.568 7.58176C31.568 8.19597 31.0701 8.69392 30.4559 8.69392C29.8417 8.69392 29.3437 8.19597 29.3437 7.58176V7.54469C29.3437 6.93049 29.8417 6.43254 30.4559 6.43254C31.0701 6.43254 31.568 6.93049 31.568 7.54469V7.58176Z" fill="#C4B0A8"/>
</g>
<defs>
<clipPath id="clip0_6006_704">
<rect width="38" height="38" fill="white"/>
</clipPath>
</defs>
</svg>
